<svg xmlns="http://www.w3.org/2000/svg" version="1.1" xmlns:xlink="http://www.w3.org/1999/xlink" xmlns:svgjs="http://svgjs.dev/svgjs" width="100%" height="100%" viewBox="0 0 1000 600"><rect width="1000" height="600" x="0" y="0" fill="#358597"/><g><circle r="166.66666666666666" cx="425.5522257486979" cy="447.7743849181036" fill="#f4a896" transform="matrix(0.48283888315204015,0,0,0.4828388831520402,0,83.797103540967)"/><path d="M392.02541149515383 522.7743663203307L383.6623165102544 522.7743663203307Q380.86469754733434 522.7743663203307 379.25755473884834 521.286271127288Q377.65041193036234 519.7684140303846 377.02541194928443 517.0005569713253L377.02541194928443 517.0005569713253L349.376603262553 379.4112754226068Q349.168269935527 378.5481802106421 349.168269935527 377.9231802295642Q349.168269935527 377.26841834462545 349.168269935527 377.0600850175995L349.168269935527 377.0600850175995Q349.168269935527 375.3338945936701 350.44803180154366 374.05413272765344Q351.72779366756026 372.7743708616368 353.4539840914897 372.7743708616368L353.4539840914897 372.7743708616368L364.58493613544834 372.7743708616368Q369.07898361843695 372.7743708616368 369.7337455033757 376.4053231326607L369.7337455033757 376.4053231326607L391.57898293724105 487.00055787958667L414.7337441409839 411.137464938275Q415.38850602592265 409.2029411873196 416.99564883440866 407.5957983788336Q418.60279164289466 405.9886555703476 421.57898202897985 405.9886555703476L421.57898202897985 405.9886555703476L429.52541035982733 405.9886555703476Q432.73969597679934 405.9886555703476 434.2277911698419 407.5957983788336Q435.7456482667454 409.2029411873196 436.16231492079726 411.137464938275L436.16231492079726 411.137464938275L459.5254094515661 487.00055787958667L481.16231355840546 376.4053231326607Q481.8170754433442 372.7743708616368 486.5194562533588 372.7743708616368L486.5194562533588 372.7743708616368L497.6504082973174 372.7743708616368Q499.37659872124686 372.7743708616368 500.65636058726346 374.05413272765344Q501.9361224532801 375.3338945936701 501.9361224532801 377.0600850175995L501.9361224532801 377.0600850175995Q501.9361224532801 377.26841834462545 501.84683674169753 377.9231802295642Q501.72778912625415 378.5481802106421 501.72778912625415 379.4112754226068L501.72778912625415 379.4112754226068L474.0789804395227 517.0005569713253Q473.4539804584448 519.7684140303846 471.8468376499588 521.286271127288Q470.2396948414728 522.7743663203307 467.4420758785527 522.7743663203307L467.4420758785527 522.7743663203307L459.0789808936533 522.7743663203307Q456.1027905075681 522.7743663203307 454.3766000836387 521.286271127288Q452.6504096597093 519.7684140303846 452.0254096786314 517.4172236253773L452.0254096786314 517.4172236253773L425.4480295308906 435.7803213350604L399.07898271017575 517.4172236253773Q398.2456494020719 519.7684140303846 396.6385065935859 521.286271127288Q395.03136378509987 522.7743663203307 392.02541149515383 522.7743663203307L392.02541149515383 522.7743663203307Z " fill="#358597" transform="matrix(0.48283888315204015,0,0,0.4828388831520402,0,83.797103540967)"/><path d="M716.757841476335 520.714080570262L708.7170176676764 520.714080570262Q706.0272047210077 520.714080570262 704.4819930282406 519.283329002885Q702.9367813354735 517.8239624041605 702.3358656771752 515.1627644888395L702.3358656771752 515.1627644888395L675.7525015553113 382.87547456916565Q675.5521963358785 382.04563866008704 675.5521963358785 381.4447230017887Q675.5521963358785 380.8151923121428 675.5521963358785 380.61488709271003L675.5521963358785 380.61488709271003Q675.5521963358785 378.9552152745528 676.7826426838226 377.7247689266086Q678.0130890317669 376.4943225786644 679.6727608499241 376.4943225786644L679.6727608499241 376.4943225786644L690.3747825739038 376.4943225786644Q694.6956523073823 376.4943225786644 695.325182997028 379.9853564030642L695.325182997028 379.9853564030642L716.3286160061218 486.3188128905199L738.5911103945073 413.37909798564243Q739.2206410841532 411.51912094805243 740.7658527769204 409.97390925528526Q742.3110644696874 408.42869756251815 745.1725676044414 408.42869756251815L745.1725676044414 408.42869756251815L752.8127809742343 408.42869756251815Q755.9032043597686 408.42869756251815 757.3339559271456 409.97390925528526Q758.79332252587 411.51912094805243 759.1939329647355 413.37909798564243L759.1939329647355 413.37909798564243L781.6567325725538 486.3188128905199L802.459860362215 379.9853564030642Q803.0893910518608 376.4943225786644 807.6105660047718 376.4943225786644L807.6105660047718 376.4943225786644L818.3125877287515 376.4943225786644Q819.972259546909 376.4943225786644 821.202705894853 377.7247689266086Q822.4331522427973 378.9552152745528 822.4331522427973 380.61488709271003L822.4331522427973 380.61488709271003Q822.4331522427973 380.8151923121428 822.3473071487546 381.4447230017887Q822.2328470233646 382.04563866008704 822.2328470233646 382.87547456916565L822.2328470233646 382.87547456916565L795.6494829015006 515.1627644888395Q795.0485672432022 517.8239624041605 793.503355550435 519.283329002885Q791.958143857668 520.714080570262 789.2683309109992 520.714080570262L789.2683309109992 520.714080570262L781.2275071023408 520.714080570262Q778.3660039675868 520.714080570262 776.7063321494296 519.283329002885Q775.0466603312724 517.8239624041605 774.445744672974 515.5633749277049L774.445744672974 515.5633749277049L748.8925216796215 437.0723439414049L723.5396039057017 515.5633749277049Q722.7383830279706 517.8239624041605 721.1931713352035 519.283329002885Q719.6479596424364 520.714080570262 716.757841476335 520.714080570262L716.757841476335 520.714080570262ZM876.6300216150365 522.7743628272849L876.6300216150365 522.7743628272849Q866.3286103299223 522.7743628272849 857.8871760823982 518.6537983132391Q849.4457418348742 514.5332337991936 844.2950361923173 507.52255111904645Q839.1443305497602 500.51186843889934 839.1443305497602 491.6698237525097L839.1443305497602 491.6698237525097Q839.1443305497602 477.4481531727827 850.6761881828185 469.00671892525867Q862.2080458158767 460.5652846777346 880.7505861290821 457.87547173106594L880.7505861290821 457.87547173106594L911.4545147649918 453.5546019975875L911.4545147649918 447.57406044595183Q911.4545147649918 437.6732595997033 905.788738558179 432.1219435182806Q900.1229623513663 426.57062743685805 887.3320433390162 426.57062743685805L887.3320433390162 426.57062743685805Q878.2896934331937 426.57062743685805 872.509457100991 430.2619664806906Q866.729220768788 433.98192055587066 864.4686332923324 439.73354185672605L864.4686332923324 439.73354185672605Q863.2381869443881 442.8239652422603 860.1477635588539 442.8239652422603L860.1477635588539 442.8239652422603L850.8764934022512 442.8239652422603Q848.6159059257956 442.8239652422603 847.471304671894 441.5076738002735Q846.35531844934 440.16276732693916 846.35531844934 438.3027902893491L846.35531844934 438.3027902893491Q846.35531844934 435.2123669038149 848.7017510198383 430.69119195090366Q851.0767986216839 426.14140196664493 856.0271990448083 421.8205322331665Q860.9775994679325 417.4996624996881 868.7036579317681 414.4950842081965Q876.4297163956038 411.51912094805243 887.5609635897964 411.51912094805243L887.5609635897964 411.51912094805243Q899.9226571319335 411.51912094805243 908.3640913794576 414.7240044589768Q916.8055256269816 417.90027293855366 921.6414659247158 423.2512838005435Q926.4774062224498 428.6309096938808 928.6521486048629 435.41267212324766Q930.8268909872758 442.223049583962 930.8268909872758 449.23373226410905L930.8268909872758 449.23373226410905L930.8268909872758 515.9639853665706Q930.8268909872758 518.0242676235933 929.4819845139415 519.3691740969277Q928.1370780406072 520.714080570262 926.0767957835843 520.714080570262L926.0767957835843 520.714080570262L916.6052204075487 520.714080570262Q914.3446329310933 520.714080570262 913.0855715518015 519.3691740969277Q911.8551252038573 518.0242676235933 911.8551252038573 515.9639853665706L911.8551252038573 515.9639853665706L911.8551252038573 507.1219406801809Q909.1939272885362 510.81327972401346 904.6441373042775 514.4187736738033Q900.1229623513663 518.0242676235933 893.3125848906519 520.3993152254391Q886.5308224612851 522.7743628272849 876.6300216150365 522.7743628272849ZM880.950891348515 507.3222458996137L880.950891348515 507.3222458996137Q889.3923255960391 507.3222458996137 896.4030082761861 503.71675194982373Q903.4136909563332 500.1112580000338 907.4197953449888 492.4996596615884Q911.4545147649918 484.8594462917954 911.4545147649918 473.3275886587371L911.4545147649918 473.3275886587371L911.4545147649918 467.54735232653417L887.5609635897964 471.0670011822815Q872.9100675398564 473.12728343930434 865.4987744208437 477.96322373703845Q858.0874813018312 482.79916403477256 858.0874813018312 490.2104571537852L858.0874813018312 490.2104571537852Q858.0874813018312 495.9906934859882 861.4926700321884 499.7964926552109Q864.8978587625455 503.60229182443356 870.1344094991451 505.4622688620236Q875.3995752670922 507.3222458996137 880.950891348515 507.3222458996137ZM975.5235699521321 520.714080570262L965.2221586670179 520.714080570262Q963.1618764099952 520.714080570262 961.8169699366607 519.3691740969277Q960.4720634633264 518.0242676235933 960.4720634633264 515.9639853665706L960.4720634633264 515.9639853665706L960.4720634633264 418.3294984087667Q960.4720634633264 416.26921615174393 961.8169699366607 414.92430967840954Q963.1618764099952 413.5794032050752 965.2221586670179 413.5794032050752L965.2221586670179 413.5794032050752L974.8940392624862 413.5794032050752Q976.9543215195091 413.5794032050752 978.2992279928434 414.92430967840954Q979.6441344661777 416.26921615174393 979.6441344661777 418.3294984087667L979.6441344661777 418.3294984087667L979.6441344661777 427.37184831458916Q984.9951453281675 420.38978066578954 993.1504292622161 415.954450806921Q1001.2770981649172 411.51912094805243 1014.0394021459198 411.51912094805243L1014.0394021459198 411.51912094805243Q1027.4312368165683 411.51912094805243 1036.8169670985612 417.38520237429793Q1046.2026973805537 423.2512838005435 1051.038637678288 433.6671552110477Q1055.874577976022 444.08302662155205 1055.874577976022 457.87547173106594L1055.874577976022 457.87547173106594L1055.874577976022 515.9639853665706Q1055.874577976022 518.0242676235933 1054.529671502688 519.3691740969277Q1053.1847650293535 520.714080570262 1051.1244827723308 520.714080570262L1051.1244827723308 520.714080570262L1040.8230714872166 520.714080570262Q1038.762789230194 520.714080570262 1037.4464977882067 519.3691740969277Q1036.1015913148726 518.0242676235933 1036.1015913148726 515.9639853665706L1036.1015913148726 515.9639853665706L1036.1015913148726 458.90561285957733Q1036.1015913148726 444.48363706041755 1029.0909086347256 436.35696815771644Q1022.0802259545784 428.20168422366777 1008.4880860644972 428.20168422366777L1008.4880860644972 428.20168422366777Q995.7257820834947 428.20168422366777 987.9997236196592 436.35696815771644Q980.2736651558236 444.48363706041755 980.2736651558236 458.90561285957733L980.2736651558236 458.90561285957733L980.2736651558236 515.9639853665706Q980.2736651558236 518.0242676235933 978.9287586824893 519.3691740969277Q977.5838522091548 520.714080570262 975.5235699521321 520.714080570262L975.5235699521321 520.714080570262ZM1124.4934231474213 522.7743628272849L1124.4934231474213 522.7743628272849Q1113.1618707337957 522.7743628272849 1104.9207417057046 518.7682584386293Q1096.679612677613 514.7335390186263 1091.414446909666 507.8373164638694Q1086.1492811417188 500.94109390911245 1083.5739283204402 492.0704341913753Q1080.9985754991617 483.22838950498567 1080.5979650602958 473.3275886587371L1080.5979650602958 473.3275886587371Q1080.397659840863 470.0368600537701 1080.397659840863 467.1467418876686Q1080.397659840863 464.25662372156717 1080.5979650602958 460.96589511660017L1080.5979650602958 460.96589511660017Q1080.9985754991617 451.2940145211319 1083.5739283204402 442.4233548033947Q1086.1492811417188 433.5526950856576 1091.414446909666 426.57062743685805Q1096.679612677613 419.55994475671093 1104.9207417057046 415.5252253367079Q1113.1618707337957 411.51912094805243 1124.4934231474213 411.51912094805243L1124.4934231474213 411.51912094805243Q1136.6261964387777 411.51912094805243 1144.6670202474365 415.8399906815308Q1152.707844056095 420.16086041500927 1157.858549698652 426.57062743685805L1157.858549698652 426.57062743685805L1157.858549698652 379.1841355253331Q1157.858549698652 377.12385326831026 1159.203456171986 375.7789467949759Q1160.5483626453206 374.4340403216416 1162.6086449023433 374.4340403216416L1162.6086449023433 374.4340403216416L1172.4808307172443 374.4340403216416Q1174.5411129742674 374.4340403216416 1175.8860194476015 375.7789467949759Q1177.230925920936 377.12385326831026 1177.230925920936 379.1841355253331L1177.230925920936 379.1841355253331L1177.230925920936 515.9639853665706Q1177.230925920936 518.0242676235933 1175.8860194476015 519.3691740969277Q1174.5411129742674 520.714080570262 1172.4808307172443 520.714080570262L1172.4808307172443 520.714080570262L1163.2095605606419 520.714080570262Q1160.948973084186 520.714080570262 1159.718526736242 519.3691740969277Q1158.488080388298 518.0242676235933 1158.488080388298 515.9639853665706L1158.488080388298 515.9639853665706L1158.488080388298 507.3222458996137Q1153.3373747457408 513.9037031095477 1145.0962457176493 518.3390329684162Q1136.8551166895581 522.7743628272849 1124.4934231474213 522.7743628272849ZM1128.8142928808998 506.09179955166945L1128.8142928808998 506.09179955166945Q1139.1157041660135 506.09179955166945 1145.2965509370824 501.341704347978Q1151.4773977081509 496.620224175634 1154.5678210936849 489.29477615066395Q1157.6582444792193 481.96932812569395 1157.858549698652 474.3577297872485L1157.858549698652 474.3577297872485Q1158.0588549180848 471.0670011822815 1158.0588549180848 466.4313661039801Q1158.0588549180848 461.7957310256788 1157.858549698652 458.5050024207118L1157.858549698652 458.5050024207118Q1157.6582444792193 451.2940145211319 1154.4533609682949 444.2833318409848Q1151.2770924887177 437.2726491608377 1144.9817855922593 432.7514742079265Q1138.6864786958008 428.20168422366777 1128.8142928808998 428.20168422366777L1128.8142928808998 428.20168422366777Q1118.3125763763528 428.20168422366777 1112.1317296052844 432.8373193019691Q1105.950882834216 437.47295438027044 1103.261069887547 444.9987076246733Q1100.5712569408784 452.5244608690761 1100.170646502013 461.16620033603294L1100.170646502013 461.16620033603294Q1099.9703412825802 467.1467418876686 1100.170646502013 473.12728343930434L1100.170646502013 473.12728343930434Q1100.5712569408784 481.76902290626117 1103.261069887547 489.29477615066395Q1105.950882834216 496.8205293950668 1112.1317296052844 501.4561644733681Q1118.3125763763528 506.09179955166945 1128.8142928808998 506.09179955166945ZM1250.771556484112 522.7743628272849L1250.771556484112 522.7743628272849Q1229.3388980048048 522.7743628272849 1216.7768992432352 509.69729350145946Q1204.2149004816652 496.620224175634 1202.984454133721 473.95711934838295L1202.984454133721 473.95711934838295Q1202.7841489142884 471.2673064017143 1202.7841489142884 467.03228176227844Q1202.7841489142884 462.8258721541902 1202.984454133721 460.1360592075215L1202.984454133721 460.1360592075215Q1203.8142900427997 445.513778188929 1209.7662165630882 434.4969911201264Q1215.746758114724 423.4802040513238 1226.162629525228 417.4996624996881Q1236.5498859043846 411.51912094805243 1250.5712512646787 411.51912094805243L1250.5712512646787 411.51912094805243Q1266.2236734117828 411.51912094805243 1276.8398500417197 418.10057815798643Q1287.4560266716571 424.710650399268 1293.0073427530797 436.87203872197216Q1298.58727386585 449.0048120133288 1298.58727386585 465.28676485007855L1298.58727386585 465.28676485007855L1298.58727386585 468.8064137058259Q1298.58727386585 471.0670011822815 1297.2423673925155 472.29744753022567Q1295.897460919181 473.5278938781699 1293.8371786621583 473.5278938781699L1293.8371786621583 473.5278938781699L1222.5571355754382 473.5278938781699Q1222.5571355754382 473.7281990976026 1222.5571355754382 474.3577297872485Q1222.5571355754382 474.98726047689433 1222.5571355754382 475.3878709157599L1222.5571355754382 475.3878709157599Q1222.9577460143037 483.829305163284 1226.2484746192708 491.154753188254Q1229.5678182555853 498.4515861818765 1235.8345101206965 503.00137616613523Q1242.129817017155 507.52255111904645 1250.5712512646787 507.52255111904645L1250.5712512646787 507.52255111904645Q1257.9825443836917 507.52255111904645 1262.932944806816 505.26196364259084Q1267.88334522994 503.00137616613523 1270.9737686154745 500.22571812542395Q1274.0641920010085 497.4214450533651 1275.0943331295198 495.7903882665554L1275.0943331295198 495.7903882665554Q1276.9543101671102 493.30088053931945 1277.9844512956215 492.7858099750637Q1279.0145924241328 492.27073941080806 1281.2751799005887 492.27073941080806L1281.2751799005887 492.27073941080806L1291.3762859662697 492.27073941080806Q1293.2076479725124 492.27073941080806 1294.552554445847 493.4153406647096Q1295.897460919181 494.5599419186112 1295.6971556997482 496.620224175634L1295.6971556997482 496.620224175634Q1295.4968504803155 499.71064756116823 1292.4064270947815 504.1173623886893Q1289.316003709247 508.5526922475579 1283.6502275024345 512.8735619810363Q1277.9844512956215 517.2230467458622 1269.62886214214 519.9987047865736Q1261.2732729886588 522.7743628272849 1250.771556484112 522.7743628272849ZM1222.5571355754382 458.70530764014455L1222.5571355754382 459.3062232984429L1279.0145924241328 459.3062232984429L1279.0145924241328 458.70530764014455Q1279.0145924241328 449.4340374835419 1275.6094036937757 442.223049583962Q1272.2042149634185 435.0120616843821 1265.8230629729173 430.77703704494627Q1259.4419109824162 426.57062743685805 1250.5712512646787 426.57062743685805L1250.5712512646787 426.57062743685805Q1241.7005915469417 426.57062743685805 1235.4338996818306 430.77703704494627Q1229.138592785372 435.0120616843821 1225.847864180405 442.223049583962Q1222.5571355754382 449.4340374835419 1222.5571355754382 458.70530764014455L1222.5571355754382 458.70530764014455ZM1338.1332471881492 520.714080570262L1328.0321411224677 520.714080570262Q1325.971858865445 520.714080570262 1324.6269523921105 519.3691740969277Q1323.3106609501237 518.0242676235933 1323.3106609501237 515.9639853665706L1323.3106609501237 515.9639853665706L1323.3106609501237 418.5298036281995Q1323.3106609501237 416.46952137117665 1324.6269523921105 415.0101547724522Q1325.971858865445 413.5794032050752 1328.0321411224677 413.5794032050752L1328.0321411224677 413.5794032050752L1337.5037164985033 413.5794032050752Q1339.563998755526 413.5794032050752 1341.0233653542505 415.0101547724522Q1342.4541169216272 416.46952137117665 1342.4541169216272 418.5298036281995L1342.4541169216272 418.5298036281995L1342.4541169216272 427.60076856536944Q1346.574681435673 420.5900858852223 1353.7856693352528 417.070437029475Q1360.996657234833 413.5794032050752 1371.2980685199468 413.5794032050752L1371.2980685199468 413.5794032050752L1379.3388923286057 413.5794032050752Q1381.3991745856283 413.5794032050752 1382.7440810589628 414.92430967840954Q1384.0889875322969 416.26921615174393 1384.0889875322969 418.3294984087667L1384.0889875322969 418.3294984087667L1384.0889875322969 426.7709326562908Q1384.0889875322969 428.8312149133136 1382.7440810589628 430.0616612612578Q1381.3991745856283 431.292107609202 1379.3388923286057 431.292107609202L1379.3388923286057 431.292107609202L1366.9771987864688 431.292107609202Q1355.845951592276 431.292107609202 1349.4647996017748 437.7877197250934Q1343.0836476112731 444.2833318409848 1343.0836476112731 455.41457903517755L1343.0836476112731 455.41457903517755L1343.0836476112731 515.9639853665706Q1343.0836476112731 518.0242676235933 1341.6242810125486 519.3691740969277Q1340.1935294451719 520.714080570262 1338.1332471881492 520.714080570262L1338.1332471881492 520.714080570262ZM1436.6261850863789 520.714080570262L1428.5853612777205 520.714080570262Q1425.895548331052 520.714080570262 1424.3503366382847 519.283329002885Q1422.8051249455175 517.8239624041605 1422.2042092872193 515.1627644888395L1422.2042092872193 515.1627644888395L1395.6208451653551 382.87547456916565Q1395.4205399459224 382.04563866008704 1395.4205399459224 381.4447230017887Q1395.4205399459224 380.8151923121428 1395.4205399459224 380.61488709271003L1395.4205399459224 380.61488709271003Q1395.4205399459224 378.9552152745528 1396.650986293867 377.7247689266086Q1397.881432641811 376.4943225786644 1399.5411044599682 376.4943225786644L1399.5411044599682 376.4943225786644L1410.2431261839479 376.4943225786644Q1414.5639959174264 376.4943225786644 1415.1935266070718 379.9853564030642L1415.1935266070718 379.9853564030642L1436.1969596161657 486.3188128905199L1458.4594540045514 413.37909798564243Q1459.06036966285 411.51912094805243 1460.6055813556168 409.97390925528526Q1462.150793048384 408.42869756251815 1465.0409112144853 408.42869756251815L1465.0409112144853 408.42869756251815L1472.6811245842782 408.42869756251815Q1475.7715479698127 408.42869756251815 1477.2022995371894 409.97390925528526Q1478.6330511045667 411.51912094805243 1479.0622765747798 413.37909798564243L1479.0622765747798 413.37909798564243L1501.5250761825978 486.3188128905199L1522.328203972259 379.9853564030642Q1522.9291196305571 376.4943225786644 1527.478909614816 376.4943225786644L1527.478909614816 376.4943225786644L1538.1809313387957 376.4943225786644Q1539.840603156953 376.4943225786644 1541.071049504897 377.7247689266086Q1542.301495852841 378.9552152745528 1542.301495852841 380.61488709271003L1542.301495852841 380.61488709271003Q1542.301495852841 380.8151923121428 1542.2156507587988 381.4447230017887Q1542.1011906334084 382.04563866008704 1542.1011906334084 382.87547456916565L1542.1011906334084 382.87547456916565L1515.5178265115446 515.1627644888395Q1514.9169108532465 517.8239624041605 1513.3716991604792 519.283329002885Q1511.826487467712 520.714080570262 1509.1366745210435 520.714080570262L1509.1366745210435 520.714080570262L1501.095850712385 520.714080570262Q1498.2057325462833 520.714080570262 1496.5746757594734 519.283329002885Q1494.9150039413162 517.8239624041605 1494.314088283018 515.5633749277049L1494.314088283018 515.5633749277049L1468.7608652896656 437.0723439414049L1443.407947515746 515.5633749277049Q1442.5781116066673 517.8239624041605 1441.0328999139 519.283329002885Q1439.4876882211329 520.714080570262 1436.6261850863789 520.714080570262L1436.6261850863789 520.714080570262ZM1581.2465535168421 520.714080570262L1571.3457526705938 520.714080570262Q1569.2854704135707 520.714080570262 1567.969178971584 519.3691740969277Q1566.6242724982499 518.0242676235933 1566.6242724982499 515.9639853665706L1566.6242724982499 515.9639853665706L1566.6242724982499 418.3294984087667Q1566.6242724982499 416.26921615174393 1567.969178971584 414.92430967840954Q1569.2854704135707 413.5794032050752 1571.3457526705938 413.5794032050752L1571.3457526705938 413.5794032050752L1581.2465535168421 413.5794032050752Q1583.3068357738648 413.5794032050752 1584.6517422471993 414.92430967840954Q1585.9966487205334 416.26921615174393 1585.9966487205334 418.3294984087667L1585.9966487205334 418.3294984087667L1585.9966487205334 515.9639853665706Q1585.9966487205334 518.0242676235933 1584.6517422471993 519.3691740969277Q1583.3068357738648 520.714080570262 1581.2465535168421 520.714080570262L1581.2465535168421 520.714080570262ZM1582.6773050842194 393.6061113244928L1569.7146958837839 393.6061113244928Q1567.6544136267612 393.6061113244928 1566.3095071534267 392.26120485115854Q1564.9646006800926 390.91629837782415 1564.9646006800926 388.85601612080137L1564.9646006800926 388.85601612080137L1564.9646006800926 377.7247689266086Q1564.9646006800926 375.66448666958576 1566.3095071534267 374.2337351022088Q1567.6544136267612 372.7743685034843 1569.7146958837839 372.7743685034843L1569.7146958837839 372.7743685034843L1582.6773050842194 372.7743685034843Q1584.737587341242 372.7743685034843 1586.1969539399665 374.2337351022088Q1587.6277055073433 375.66448666958576 1587.6277055073433 377.7247689266086L1587.6277055073433 377.7247689266086L1587.6277055073433 388.85601612080137Q1587.6277055073433 390.91629837782415 1586.1969539399665 392.26120485115854Q1584.737587341242 393.6061113244928 1582.6773050842194 393.6061113244928L1582.6773050842194 393.6061113244928ZM1653.5567377320735 522.7743628272849L1653.5567377320735 522.7743628272849Q1642.0248800990157 522.7743628272849 1633.7837510709242 519.8842446611834Q1625.542622042833 516.9941264950819 1620.391916400276 512.8735619810363Q1615.2412107577188 508.7529974669906 1612.6658579364403 504.63243295294495Q1610.0905051151617 500.51186843889934 1609.890199895729 498.05097574301095L1609.890199895729 498.05097574301095Q1609.6898946762963 495.7903882665554 1611.3209514631058 494.5599419186112Q1612.980623281263 493.30088053931945 1614.611680068073 493.30088053931945L1614.611680068073 493.30088053931945L1623.8829502246754 493.30088053931945Q1624.9130913531872 493.30088053931945 1625.657082168223 493.6156458841424Q1626.3724579519117 493.93041122896534 1627.6029042998557 495.3611627963423L1627.6029042998557 495.3611627963423Q1630.2927172465243 498.25128096244373 1633.5834458514914 501.1413991285452Q1636.8741744564581 504.0315172946467 1641.7101147541925 505.89149433223673Q1646.5460550519265 507.72285633847923 1653.7570429515063 507.72285633847923L1653.7570429515063 507.72285633847923Q1664.287374487401 507.72285633847923 1671.0691369167675 503.71675194982373Q1677.8795143774819 499.71064756116823 1677.8795143774819 491.8701289719425L1677.8795143774819 491.8701289719425Q1677.8795143774819 486.71942332938545 1675.103856336771 483.6289999438512Q1672.299583264712 480.53857655831695 1665.2030554905223 478.0776838624286Q1658.1065277163325 475.5881761351927 1645.7448341741956 472.92697821987156L1645.7448341741956 472.92697821987156Q1633.3831406320587 470.0368600537701 1626.172152732479 465.8018354143343Q1618.9611648328987 461.595425806246 1615.8707414473647 455.70072934865294Q1612.7803180618303 449.8346479224074 1612.7803180618303 442.4233548033947L1612.7803180618303 442.4233548033947Q1612.7803180618303 434.8117564649493 1617.3014930147415 427.68661365941205Q1621.8226679676527 420.5900858852223 1630.5788675599997 416.0402959009636Q1639.3350671523467 411.51912094805243 1652.5265966035622 411.51912094805243L1652.5265966035622 411.51912094805243Q1663.2572333588896 411.51912094805243 1670.8688316973348 414.2089338947211Q1678.4804300357805 416.8701318100422 1683.4308304589044 420.90485123004527Q1688.3812308820293 424.91095561870077 1690.8421235779174 428.8312149133136Q1693.3316313051532 432.7514742079265 1693.531936524586 435.41267212324766L1693.531936524586 435.41267212324766Q1693.7322417440187 437.47295438027044 1692.301490176642 438.8178608536048Q1690.8421235779174 440.16276732693916 1689.0107615716747 440.16276732693916L1689.0107615716747 440.16276732693916L1680.3404070733704 440.16276732693916Q1678.9096555059937 440.16276732693916 1677.9653594715246 439.53323663729327Q1677.0496784684037 438.93232097899494 1676.2198425593251 438.1024850699163L1676.2198425593251 438.1024850699163Q1674.159560302302 435.41267212324766 1671.3839022615907 432.7514742079265Q1668.6082442208794 430.0616612612578 1664.172914362011 428.31614434905794Q1659.7375845031424 426.57062743685805 1652.5265966035622 426.57062743685805L1652.5265966035622 426.57062743685805Q1642.2251853184484 426.57062743685805 1637.0744796758913 430.89149717033644Q1631.9237740333342 435.2123669038149 1631.9237740333342 441.7938241137489L1631.9237740333342 441.7938241137489Q1631.9237740333342 445.7140834083618 1634.1843615097896 448.804506793896Q1636.4735640175927 451.8949301794302 1642.8547160080939 454.38443790666616Q1649.2358679985955 456.8453306025545 1661.797866760165 459.735448768656L1661.797866760165 459.735448768656Q1675.390006650246 462.3966466839771 1683.2305252394717 466.94643666823583Q1691.0710438286978 471.46761162114706 1694.3617724336646 477.4481531727827Q1697.6525010386317 483.42869472441845 1697.6525010386317 491.2405982822966L1697.6525010386317 491.2405982822966Q1697.6525010386317 499.910952780601 1692.7021006155073 507.1219406801809Q1687.751700192383 514.3329285797608 1677.8795143774819 518.5393381878491Q1667.9787135312336 522.7743628272849 1653.5567377320735 522.7743628272849ZM1764.4113691724406 522.7743628272849L1764.4113691724406 522.7743628272849Q1742.978710693134 522.7743628272849 1730.416711931564 509.69729350145946Q1717.8547131699943 496.620224175634 1716.595651790703 473.95711934838295L1716.595651790703 473.95711934838295Q1716.3953465712698 471.2673064017143 1716.3953465712698 467.03228176227844Q1716.3953465712698 462.8258721541902 1716.595651790703 460.1360592075215L1716.595651790703 460.1360592075215Q1717.4254876997811 445.513778188929 1723.4060292514173 434.4969911201264Q1729.3865708030526 423.4802040513238 1739.7738271822095 417.4996624996881Q1750.1896985927137 411.51912094805243 1764.2110639530079 411.51912094805243L1764.2110639530079 411.51912094805243Q1779.863486100112 411.51912094805243 1790.4796627300489 418.10057815798643Q1801.0672243286385 424.710650399268 1806.6471554414084 436.87203872197216Q1812.198471522831 449.0048120133288 1812.198471522831 465.28676485007855L1812.198471522831 465.28676485007855L1812.198471522831 468.8064137058259Q1812.198471522831 471.0670011822815 1810.8535650494969 472.29744753022567Q1809.53727360751 473.5278938781699 1807.4769913504874 473.5278938781699L1807.4769913504874 473.5278938781699L1736.1683332324196 473.5278938781699Q1736.1683332324196 473.7281990976026 1736.1683332324196 474.3577297872485Q1736.1683332324196 474.98726047689433 1736.1683332324196 475.3878709157599L1736.1683332324196 475.3878709157599Q1736.5975587026328 483.829305163284 1739.8882873075995 491.154753188254Q1743.1790159125667 498.4515861818765 1749.4743228090251 503.00137616613523Q1755.7410146741363 507.52255111904645 1764.2110639530079 507.52255111904645L1764.2110639530079 507.52255111904645Q1771.6223570720208 507.52255111904645 1776.5727574951447 505.26196364259084Q1781.4945428869219 503.00137616613523 1784.5849662724559 500.22571812542395Q1787.6753896579903 497.4214450533651 1788.7055307865016 495.7903882665554L1788.7055307865016 495.7903882665554Q1790.5655078240916 493.30088053931945 1791.595648952603 492.7858099750637Q1792.6257900811142 492.27073941080806 1794.88637755757 492.27073941080806L1794.88637755757 492.27073941080806L1804.9874836232516 492.27073941080806Q1806.8474606608415 492.27073941080806 1808.1923671341756 493.4153406647096Q1809.53727360751 494.5599419186112 1809.3083533567296 496.620224175634L1809.3083533567296 496.620224175634Q1809.108048137297 499.71064756116823 1806.017624751763 504.1173623886893Q1802.9272013662285 508.5526922475579 1797.261425159416 512.8735619810363Q1791.595648952603 517.2230467458622 1783.268674830469 519.9987047865736Q1774.9130856769875 522.7743628272849 1764.4113691724406 522.7743628272849ZM1736.1683332324196 458.70530764014455L1736.1683332324196 459.3062232984429L1792.6257900811142 459.3062232984429L1792.6257900811142 458.70530764014455Q1792.6257900811142 449.4340374835419 1789.2206013507575 442.223049583962Q1785.8440276517476 435.0120616843821 1779.4342606298987 430.77703704494627Q1773.0531086393976 426.57062743685805 1764.2110639530079 426.57062743685805L1764.2110639530079 426.57062743685805Q1755.3404042352709 426.57062743685805 1749.045097338812 430.77703704494627Q1742.7784054737012 435.0120616843821 1739.487676868734 442.223049583962Q1736.1683332324196 449.4340374835419 1736.1683332324196 458.70530764014455L1736.1683332324196 458.70530764014455Z " fill="#f4a896" transform="matrix(0.48283888315204015,0,0,0.4828388831520402,0,83.797103540967)"/></g></svg>